<mxfile host="Electron" agent="Mozilla/5.0 (Windows NT 10.0; Win64; x64) AppleWebKit/537.36 (KHTML, like Gecko) draw.io/27.0.9 Chrome/134.0.6998.205 Electron/35.4.0 Safari/537.36" version="27.0.9">
  <diagram name="PÃ¡gina-1" id="zQjjP_EeiTSpy_okXXAl">
    <mxGraphModel dx="788" dy="551" grid="1" gridSize="10" guides="1" tooltips="1" connect="1" arrows="1" fold="1" page="1" pageScale="1" pageWidth="827" pageHeight="1169" math="0" shadow="0">
      <root>
        <mxCell id="0" />
        <mxCell id="1" parent="0" />
        <mxCell id="2zpEwUKdXD2Q-fXeueGL-2" value="Dormitorio" style="whiteSpace=wrap;html=1;align=center;fillColor=#f0a30a;strokeColor=#BD7000;fontColor=#000000;" parent="1" vertex="1">
          <mxGeometry x="370" y="940" width="100" height="40" as="geometry" />
        </mxCell>
        <mxCell id="2zpEwUKdXD2Q-fXeueGL-3" value="Montadore" style="whiteSpace=wrap;html=1;align=center;fillColor=#f0a30a;strokeColor=#BD7000;fontColor=#000000;" parent="1" vertex="1">
          <mxGeometry x="364" y="750" width="100" height="40" as="geometry" />
        </mxCell>
        <mxCell id="2zpEwUKdXD2Q-fXeueGL-4" value="Monta" style="shape=rhombus;perimeter=rhombusPerimeter;whiteSpace=wrap;html=1;align=center;fillColor=#76608a;fontColor=#ffffff;strokeColor=#432D57;" parent="1" vertex="1">
          <mxGeometry x="370" y="840" width="90" height="40" as="geometry" />
        </mxCell>
        <mxCell id="2zpEwUKdXD2Q-fXeueGL-5" value="" style="endArrow=none;html=1;rounded=0;exitX=0;exitY=0.5;exitDx=0;exitDy=0;" parent="1" source="2zpEwUKdXD2Q-fXeueGL-4" target="2zpEwUKdXD2Q-fXeueGL-3" edge="1">
          <mxGeometry relative="1" as="geometry">
            <mxPoint x="347" y="830" as="sourcePoint" />
            <mxPoint x="300" y="860" as="targetPoint" />
          </mxGeometry>
        </mxCell>
        <mxCell id="2zpEwUKdXD2Q-fXeueGL-6" value="(1,N)" style="resizable=0;html=1;whiteSpace=wrap;align=right;verticalAlign=bottom;" parent="2zpEwUKdXD2Q-fXeueGL-5" connectable="0" vertex="1">
          <mxGeometry x="1" relative="1" as="geometry">
            <mxPoint x="34" as="offset" />
          </mxGeometry>
        </mxCell>
        <mxCell id="2zpEwUKdXD2Q-fXeueGL-7" value="" style="endArrow=none;html=1;rounded=0;exitX=1;exitY=0.5;exitDx=0;exitDy=0;" parent="1" source="2zpEwUKdXD2Q-fXeueGL-4" target="2zpEwUKdXD2Q-fXeueGL-2" edge="1">
          <mxGeometry relative="1" as="geometry">
            <mxPoint x="347" y="830" as="sourcePoint" />
            <mxPoint x="520" y="860" as="targetPoint" />
          </mxGeometry>
        </mxCell>
        <mxCell id="2zpEwUKdXD2Q-fXeueGL-8" value="(1,M)" style="resizable=0;html=1;whiteSpace=wrap;align=right;verticalAlign=bottom;" parent="2zpEwUKdXD2Q-fXeueGL-7" connectable="0" vertex="1">
          <mxGeometry x="1" relative="1" as="geometry">
            <mxPoint as="offset" />
          </mxGeometry>
        </mxCell>
        <mxCell id="2zpEwUKdXD2Q-fXeueGL-9" value="" style="endArrow=none;html=1;rounded=0;" parent="1" source="2zpEwUKdXD2Q-fXeueGL-2" target="2zpEwUKdXD2Q-fXeueGL-10" edge="1">
          <mxGeometry relative="1" as="geometry">
            <mxPoint x="340" y="1010" as="sourcePoint" />
            <mxPoint x="389" y="1015" as="targetPoint" />
          </mxGeometry>
        </mxCell>
        <mxCell id="2zpEwUKdXD2Q-fXeueGL-10" value="&lt;u&gt;Codigo_Modelo&lt;/u&gt;" style="ellipse;whiteSpace=wrap;html=1;align=center;" parent="1" vertex="1">
          <mxGeometry x="380" y="1020" width="50" height="30" as="geometry" />
        </mxCell>
        <mxCell id="2zpEwUKdXD2Q-fXeueGL-11" value="" style="endArrow=none;html=1;rounded=0;" parent="1" source="2zpEwUKdXD2Q-fXeueGL-4" target="2zpEwUKdXD2Q-fXeueGL-12" edge="1">
          <mxGeometry relative="1" as="geometry">
            <mxPoint x="510" y="860" as="sourcePoint" />
            <mxPoint x="570" y="860" as="targetPoint" />
          </mxGeometry>
        </mxCell>
        <mxCell id="2zpEwUKdXD2Q-fXeueGL-12" value="Fecha_montaje" style="ellipse;whiteSpace=wrap;html=1;align=center;" parent="1" vertex="1">
          <mxGeometry x="490" y="820" width="50" height="30" as="geometry" />
        </mxCell>
        <mxCell id="2zpEwUKdXD2Q-fXeueGL-13" value="" style="endArrow=none;html=1;rounded=0;" parent="1" source="2zpEwUKdXD2Q-fXeueGL-3" target="2zpEwUKdXD2Q-fXeueGL-14" edge="1">
          <mxGeometry relative="1" as="geometry">
            <mxPoint x="480" y="775" as="sourcePoint" />
            <mxPoint x="540" y="775" as="targetPoint" />
          </mxGeometry>
        </mxCell>
        <mxCell id="2zpEwUKdXD2Q-fXeueGL-14" value="&lt;u&gt;NIF&lt;/u&gt;" style="ellipse;whiteSpace=wrap;html=1;align=center;" parent="1" vertex="1">
          <mxGeometry x="515" y="750" width="50" height="30" as="geometry" />
        </mxCell>
        <mxCell id="2zpEwUKdXD2Q-fXeueGL-15" value="" style="endArrow=none;html=1;rounded=0;" parent="1" source="2zpEwUKdXD2Q-fXeueGL-3" target="2zpEwUKdXD2Q-fXeueGL-16" edge="1">
          <mxGeometry relative="1" as="geometry">
            <mxPoint x="490" y="715" as="sourcePoint" />
            <mxPoint x="550" y="715" as="targetPoint" />
          </mxGeometry>
        </mxCell>
        <mxCell id="2zpEwUKdXD2Q-fXeueGL-16" value="Nombre" style="ellipse;whiteSpace=wrap;html=1;align=center;" parent="1" vertex="1">
          <mxGeometry x="525" y="700" width="50" height="30" as="geometry" />
        </mxCell>
        <mxCell id="2zpEwUKdXD2Q-fXeueGL-17" value="" style="endArrow=none;html=1;rounded=0;" parent="1" source="2zpEwUKdXD2Q-fXeueGL-3" target="2zpEwUKdXD2Q-fXeueGL-18" edge="1">
          <mxGeometry relative="1" as="geometry">
            <mxPoint x="440" y="740" as="sourcePoint" />
            <mxPoint x="515" y="685" as="targetPoint" />
          </mxGeometry>
        </mxCell>
        <mxCell id="2zpEwUKdXD2Q-fXeueGL-18" value="Direccion" style="ellipse;whiteSpace=wrap;html=1;align=center;" parent="1" vertex="1">
          <mxGeometry x="480" y="670" width="50" height="30" as="geometry" />
        </mxCell>
        <mxCell id="2zpEwUKdXD2Q-fXeueGL-19" value="" style="endArrow=none;html=1;rounded=0;" parent="1" source="2zpEwUKdXD2Q-fXeueGL-3" target="2zpEwUKdXD2Q-fXeueGL-20" edge="1">
          <mxGeometry relative="1" as="geometry">
            <mxPoint x="405" y="675" as="sourcePoint" />
            <mxPoint x="465" y="675" as="targetPoint" />
          </mxGeometry>
        </mxCell>
        <mxCell id="2zpEwUKdXD2Q-fXeueGL-20" value="Telefono" style="ellipse;whiteSpace=wrap;html=1;align=center;" parent="1" vertex="1">
          <mxGeometry x="420" y="650" width="50" height="30" as="geometry" />
        </mxCell>
        <mxCell id="2zpEwUKdXD2Q-fXeueGL-21" value="" style="endArrow=none;html=1;rounded=0;" parent="1" source="2zpEwUKdXD2Q-fXeueGL-3" target="2zpEwUKdXD2Q-fXeueGL-22" edge="1">
          <mxGeometry relative="1" as="geometry">
            <mxPoint x="320" y="665" as="sourcePoint" />
            <mxPoint x="380" y="665" as="targetPoint" />
          </mxGeometry>
        </mxCell>
        <mxCell id="2zpEwUKdXD2Q-fXeueGL-22" value="Numero_De_Dormitorios_Montados_Por_Cada_Modelo" style="ellipse;whiteSpace=wrap;html=1;align=center;" parent="1" vertex="1">
          <mxGeometry x="260" y="690" width="50" height="30" as="geometry" />
        </mxCell>
        <mxCell id="2zpEwUKdXD2Q-fXeueGL-23" value="Cliente" style="whiteSpace=wrap;html=1;align=center;fillColor=#f0a30a;strokeColor=#BD7000;fontColor=#000000;" parent="1" vertex="1">
          <mxGeometry x="100" y="940" width="100" height="40" as="geometry" />
        </mxCell>
        <mxCell id="2zpEwUKdXD2Q-fXeueGL-24" value="Compra" style="shape=rhombus;perimeter=rhombusPerimeter;whiteSpace=wrap;html=1;align=center;fillColor=#76608a;fontColor=#ffffff;strokeColor=#432D57;" parent="1" vertex="1">
          <mxGeometry x="240" y="940" width="90" height="40" as="geometry" />
        </mxCell>
        <mxCell id="2zpEwUKdXD2Q-fXeueGL-25" value="" style="endArrow=none;html=1;rounded=0;exitX=0;exitY=0.5;exitDx=0;exitDy=0;" parent="1" source="2zpEwUKdXD2Q-fXeueGL-24" edge="1">
          <mxGeometry relative="1" as="geometry">
            <mxPoint x="227" y="930" as="sourcePoint" />
            <mxPoint x="180" y="960" as="targetPoint" />
          </mxGeometry>
        </mxCell>
        <mxCell id="2zpEwUKdXD2Q-fXeueGL-26" value="(1,N)" style="resizable=0;html=1;whiteSpace=wrap;align=right;verticalAlign=bottom;" parent="2zpEwUKdXD2Q-fXeueGL-25" connectable="0" vertex="1">
          <mxGeometry x="1" relative="1" as="geometry">
            <mxPoint x="34" as="offset" />
          </mxGeometry>
        </mxCell>
        <mxCell id="2zpEwUKdXD2Q-fXeueGL-27" value="" style="endArrow=none;html=1;rounded=0;exitX=1;exitY=0.5;exitDx=0;exitDy=0;" parent="1" source="2zpEwUKdXD2Q-fXeueGL-24" edge="1">
          <mxGeometry relative="1" as="geometry">
            <mxPoint x="227" y="930" as="sourcePoint" />
            <mxPoint x="380" y="960" as="targetPoint" />
          </mxGeometry>
        </mxCell>
        <mxCell id="2zpEwUKdXD2Q-fXeueGL-28" value="(1,M)" style="resizable=0;html=1;whiteSpace=wrap;align=right;verticalAlign=bottom;" parent="2zpEwUKdXD2Q-fXeueGL-27" connectable="0" vertex="1">
          <mxGeometry x="1" relative="1" as="geometry">
            <mxPoint as="offset" />
          </mxGeometry>
        </mxCell>
        <mxCell id="2zpEwUKdXD2Q-fXeueGL-29" value="" style="endArrow=none;html=1;rounded=0;" parent="1" source="2zpEwUKdXD2Q-fXeueGL-23" target="2zpEwUKdXD2Q-fXeueGL-30" edge="1">
          <mxGeometry relative="1" as="geometry">
            <mxPoint x="175" y="905" as="sourcePoint" />
            <mxPoint x="235" y="905" as="targetPoint" />
          </mxGeometry>
        </mxCell>
        <mxCell id="2zpEwUKdXD2Q-fXeueGL-30" value="&lt;u&gt;NIF&lt;/u&gt;" style="ellipse;whiteSpace=wrap;html=1;align=center;" parent="1" vertex="1">
          <mxGeometry x="210" y="890" width="50" height="30" as="geometry" />
        </mxCell>
        <mxCell id="2zpEwUKdXD2Q-fXeueGL-31" value="" style="endArrow=none;html=1;rounded=0;exitX=0.5;exitY=0;exitDx=0;exitDy=0;" parent="1" source="2zpEwUKdXD2Q-fXeueGL-23" target="2zpEwUKdXD2Q-fXeueGL-32" edge="1">
          <mxGeometry relative="1" as="geometry">
            <mxPoint x="130" y="885" as="sourcePoint" />
            <mxPoint x="190" y="885" as="targetPoint" />
          </mxGeometry>
        </mxCell>
        <mxCell id="2zpEwUKdXD2Q-fXeueGL-32" value="Nombre" style="ellipse;whiteSpace=wrap;html=1;align=center;" parent="1" vertex="1">
          <mxGeometry x="165" y="870" width="50" height="30" as="geometry" />
        </mxCell>
        <mxCell id="2zpEwUKdXD2Q-fXeueGL-33" value="" style="endArrow=none;html=1;rounded=0;" parent="1" source="2zpEwUKdXD2Q-fXeueGL-23" target="2zpEwUKdXD2Q-fXeueGL-34" edge="1">
          <mxGeometry relative="1" as="geometry">
            <mxPoint x="80" y="885" as="sourcePoint" />
            <mxPoint x="140" y="885" as="targetPoint" />
          </mxGeometry>
        </mxCell>
        <mxCell id="2zpEwUKdXD2Q-fXeueGL-34" value="Direccion" style="ellipse;whiteSpace=wrap;html=1;align=center;" parent="1" vertex="1">
          <mxGeometry x="115" y="870" width="50" height="30" as="geometry" />
        </mxCell>
        <mxCell id="2zpEwUKdXD2Q-fXeueGL-35" value="" style="endArrow=none;html=1;rounded=0;" parent="1" source="2zpEwUKdXD2Q-fXeueGL-23" target="2zpEwUKdXD2Q-fXeueGL-36" edge="1">
          <mxGeometry relative="1" as="geometry">
            <mxPoint x="30" y="885" as="sourcePoint" />
            <mxPoint x="90" y="885" as="targetPoint" />
          </mxGeometry>
        </mxCell>
        <mxCell id="2zpEwUKdXD2Q-fXeueGL-36" value="Telefono" style="ellipse;whiteSpace=wrap;html=1;align=center;" parent="1" vertex="1">
          <mxGeometry x="50" y="880" width="50" height="30" as="geometry" />
        </mxCell>
        <mxCell id="2zpEwUKdXD2Q-fXeueGL-37" value="" style="endArrow=none;html=1;rounded=0;" parent="1" source="2zpEwUKdXD2Q-fXeueGL-24" target="2zpEwUKdXD2Q-fXeueGL-38" edge="1">
          <mxGeometry relative="1" as="geometry">
            <mxPoint x="225" y="1025" as="sourcePoint" />
            <mxPoint x="285" y="1025" as="targetPoint" />
          </mxGeometry>
        </mxCell>
        <mxCell id="2zpEwUKdXD2Q-fXeueGL-38" value="Fecha_compra" style="ellipse;whiteSpace=wrap;html=1;align=center;" parent="1" vertex="1">
          <mxGeometry x="260" y="1010" width="50" height="30" as="geometry" />
        </mxCell>
      </root>
    </mxGraphModel>
  </diagram>
</mxfile>
